# xmcd CD database file
#
# Track frame offsets:
#	150
#	11138
#	25043
#	44523
#	66181
#	78580
#	93474
#	105780
#	127539
#	144852
#	165746
#	182066
#	200727
#	217990
#	232628
#	254431
#	268970
#
# Disc length: 3816 seconds
#
# Revision: 1
# Processed by: cddbd v1.4PL0 Copyright (c) Steve Scherf et al.
# Submitted via: CDex 1.51
#
DISCID=de0ee611
DTITLE=Marian McPartland - Marian McPartland
DYEAR=1999
DGENRE=Jazz
TTITLE0=Without You
TTITLE1=Threnody
TTITLE2=All The Things You Are
TTITLE3=Pensativa
TTITLE4=All In Love Is Fair
TTITLE5=A Fine Romance
TTITLE6=B Minor Waltz(For Elaine)
TTITLE7=I'll Be Around
TTITLE8=Blue In Green
TTITLE9=In My Life
TTITLE10=Love You Madly
TTITLE11=Windows
TTITLE12=Pretty Women
TTITLE13=Lonely Town
TTITLE14=In The Days Of Our Love
TTITLE15=Willow Creek
TTITLE16=What's New
EXTD=YEAR: 1999
EXTT0=
EXTT1=
EXTT2=
EXTT3=
EXTT4=
EXTT5=
EXTT6=
EXTT7=
EXTT8=
EXTT9=
EXTT10=
EXTT11=
EXTT12=
EXTT13=
EXTT14=
EXTT15=
EXTT16=
PLAYORDER=
